<svg width="48" height="48" viewBox="0 0 48 48" fill="none" xmlns="http://www.w3.org/2000/svg">
<circle cx="24" cy="24" r="23.5" stroke="black"/>
<path d="M14.2832 44.2197H15.3086L23.2432 12.6035C23.3408 12.2129 23.4548 11.7246 23.585 11.1387C23.7152 10.5527 23.8291 10.0156 23.9268 9.52734H24C24.0814 10.0156 24.1872 10.5527 24.3174 11.1387C24.4639 11.7246 24.5859 12.2129 24.6836 12.6035L32.6914 44.2197H33.7168L42.2373 8.45312H41.1875L33.9121 40.1426C33.8145 40.5332 33.7249 40.9157 33.6436 41.29C33.5622 41.6481 33.4645 42.0957 33.3506 42.6328H33.2529C33.1227 42.0957 33.0169 41.6481 32.9355 41.29C32.8542 40.9157 32.7565 40.5413 32.6426 40.167L24.6836 8.45312H23.3896L15.4307 40.1914C15.333 40.5495 15.2435 40.9157 15.1621 41.29C15.0807 41.6481 14.9831 42.0957 14.8691 42.6328H14.7959C14.6657 42.0957 14.5518 41.6481 14.4541 41.29C14.3727 40.9157 14.2913 40.5495 14.21 40.1914L6.88574 8.45312H5.7627L14.2832 44.2197Z" fill="black"/>
<line x1="2" y1="31.5" x2="46" y2="31.5" stroke="black"/>
</svg>
